<?xml version="1.0" encoding="UTF-8"?>
<svg xmlns="http://www.w3.org/2000/svg" width="96" height="32" viewBox="0 0 96 32" fill="none">
  <rect width="96" height="31.6049" transform="translate(0 0.197266)" fill="white"></rect>
  <path d="M42.2703 22.1422C39.8109 22.1422 39.2679 20.6412 39.2679 18.8529V14.5098H38.5013C37.607 14.5098 37.4473 13.9031 37.4473 13.5837C37.4473 13.2644 37.607 12.6576 38.5013 12.6576H39.2679V11.0609C39.2679 10.007 40.0345 9.81543 40.4177 9.81543C40.801 9.81543 41.5676 10.007 41.5676 11.0609V12.6576H43.0049C43.8993 12.6576 44.059 13.2644 44.059 13.5837C44.059 13.9031 43.8993 14.5098 43.0049 14.5098H41.5676V18.821C41.5676 19.7151 41.887 20.2261 42.4619 20.2261C42.5578 20.2261 42.6855 20.1942 42.8452 20.1942C43.0049 20.1622 43.0369 20.1622 43.1008 20.1622C43.6757 20.1622 43.9951 20.5774 43.9951 21.0245C43.9951 21.4077 43.7715 21.6951 43.4202 21.8867C43.1008 22.0464 42.6855 22.1422 42.2703 22.1422Z" fill="black"></path>
  <path d="M50.0642 22.206C47.2534 22.206 45.0176 20.1621 45.0176 17.2561C45.0176 14.3181 47.2534 12.3701 50.0642 12.3701C52.875 12.3701 55.1108 14.3181 55.1108 17.2561C55.1428 20.1941 52.875 22.206 50.0642 22.206ZM50.0642 14.2862C48.2116 14.2862 47.3812 15.819 47.3812 17.2561C47.3812 18.6932 48.2436 20.2899 50.0642 20.2899C51.9168 20.2899 52.7472 18.7251 52.7472 17.2561C52.7472 15.7871 51.9168 14.2862 50.0642 14.2862Z" fill="black"></path>
  <path d="M65.7142 22.1101C65.3628 22.1101 64.5963 21.9504 64.5963 20.8966V20.5453H64.5643C63.9255 21.5992 62.6798 22.2059 61.3702 22.2059C58.5275 22.2059 56.8027 19.9705 56.8027 17.2561C56.8027 14.5097 58.6553 12.3701 61.3064 12.3701C62.9992 12.3701 63.9255 13.2323 64.4365 13.8071H64.5004V8.44213C64.5004 7.32442 65.267 7.13281 65.6503 7.13281C66.0336 7.13281 66.8002 7.32442 66.8002 8.44213V20.8966C66.8321 21.9504 66.0655 22.1101 65.7142 22.1101ZM61.8494 20.2898C63.5422 20.2898 64.5643 18.757 64.5643 17.3199C64.5643 15.8829 63.5422 14.2862 61.8494 14.2862C60.0607 14.2862 59.1663 15.819 59.1663 17.2561C59.1663 18.6931 60.0607 20.2898 61.8494 20.2898Z" fill="black"></path>
  <path d="M78.011 22.1101C77.6597 22.1101 76.8931 21.9504 76.8931 20.8966V20.5453H76.8612C76.2224 21.5992 74.9767 22.2059 73.6671 22.2059C70.8244 22.2059 69.0996 19.9705 69.0996 17.2561C69.0996 14.5097 70.9522 12.3701 73.6032 12.3701C75.2961 12.3701 76.2224 13.2323 76.7334 13.8071H76.7973V8.44213C76.7973 7.32442 77.5639 7.13281 77.9472 7.13281C78.3305 7.13281 79.097 7.32442 79.097 8.44213V20.8966C79.097 21.9504 78.3624 22.1101 78.011 22.1101ZM74.1462 20.2898C75.8391 20.2898 76.8612 18.757 76.8612 17.3199C76.8612 15.8829 75.8391 14.2862 74.1462 14.2862C72.3576 14.2862 71.4632 15.819 71.4632 17.2561C71.4632 18.6931 72.3256 20.2898 74.1462 20.2898Z" fill="black"></path>
  <path d="M81.9727 8.44213C81.9727 7.32442 82.7392 7.13281 83.1225 7.13281C83.5058 7.13281 84.2724 7.32442 84.2724 8.44213V20.8327C84.2724 21.9504 83.5058 22.1421 83.1225 22.1421C82.7392 22.1421 81.9727 21.9504 81.9727 20.8327V8.44213Z" fill="black"></path>
  <path d="M88.9032 18.0225C88.9991 19.3318 90.2128 20.3218 91.5543 20.3218C92.5125 20.3218 93.1194 20.0025 93.6943 19.5235C94.0137 19.268 94.2373 19.2041 94.4928 19.2041C95.0039 19.2041 95.4191 19.5873 95.4191 20.1302C95.4191 20.3218 95.3552 20.6731 95.0358 20.9605C94.1415 21.8227 93.0875 22.206 91.5862 22.206C88.7116 22.206 86.6035 20.3538 86.6035 17.3519C86.6035 14.3501 88.7116 12.3701 91.5224 12.3701C93.7582 12.3701 95.5788 13.6475 95.9621 16.3939C95.9941 16.5855 95.9941 16.7132 95.9941 16.8729C95.9941 17.6713 95.5469 18.0225 94.7803 18.0225H88.9032ZM93.6624 16.3619C93.6624 15.1484 92.9916 14.1265 91.4585 14.1265C90.085 14.1265 88.9671 15.0846 88.8713 16.3619H93.6624Z" fill="black"></path>
  <path d="M31.3878 16.1143C31.3878 8.55172 11.2387 -3.55476 5.19615 0.994504C-0.846422 5.53843 -1.33175 27.4208 5.19615 31.2394C11.7241 35.0527 31.3878 23.6715 31.3878 16.1143Z" fill="#F75961"></path>
  <path d="M15.8624 22.1248C13.4038 22.1248 12.8598 20.6155 12.8598 18.8342V14.4982H12.1078C11.2172 14.4982 11.0625 13.8796 11.0625 13.5703C11.0625 13.2609 11.2172 12.6423 12.1078 12.6423H12.8651V11.037C12.8651 9.97032 13.6225 9.77832 14.0065 9.77832C14.3958 9.77832 15.1478 9.97032 15.1478 11.037V12.6369H16.5984C17.4891 12.6369 17.6437 13.2556 17.6437 13.5649C17.6437 13.8743 17.4891 14.4929 16.5984 14.4929H15.1478V18.8129C15.1478 19.7248 15.4571 20.2048 16.0384 20.2048C16.1344 20.2048 16.2731 20.1835 16.4064 20.1675C16.5611 20.1462 16.5984 20.1462 16.6784 20.1462C17.2597 20.1462 17.5691 20.5728 17.5691 21.0155C17.5691 21.3835 17.3557 21.6928 17.0091 21.8688C16.6944 22.0288 16.2891 22.1248 15.8624 22.1248Z" fill="white"></path>
</svg>
